# This file uses centimeters as units for non-parametric coordinates.

g default
v 0.659619 -0.314542 0.211612
v -0.357548 -0.089304 0.688006
v 1.402798 0.000056 0.346390
v 0.703092 0.146904 1.138080
v -0.203850 0.383707 1.177777
v 1.495030 0.637872 0.783079
v 1.099732 0.787367 1.133375
v 0.218978 0.980853 1.168192
v 1.463337 1.044643 0.710963
v 1.176082 1.278978 0.992692
v 0.455642 1.280720 1.025251
v 0.326006 0.255174 -1.045480
v 0.580062 1.022394 -0.902919
v -0.896302 0.172247 0.770696
v -0.747590 0.661682 0.875508
v -0.325219 1.197239 0.587549
v 0.266354 1.513955 0.545001
v 1.123367 1.563541 0.338693
v 1.581803 1.291959 0.084960
v 1.694680 0.706499 -0.066588
v 0.257708 -0.263433 -0.647871
v -0.572703 -0.068175 -0.389376
v -0.771310 0.508561 -0.317954
v 1.447206 -0.046214 -0.443569
v 0.762992 -0.276837 -0.781868
v -0.413349 1.245831 -0.274814
v 0.146567 1.405759 -0.066415
v 0.796340 1.320443 -0.325042
v 1.264950 1.228592 -0.505696
v 1.285540 0.798702 -0.736171
v 1.060869 0.105626 -0.898338
vt 0.929534 0.958181
vt 0.904456 0.879476
vt 0.894030 0.648906
vt 0.777921 0.603223
vt 0.705236 0.585738
vt 0.893846 0.776144
vt 0.863055 0.720962
vt 0.798187 0.671198
vt 0.850431 0.772345
vt 0.831560 0.741466
vt 0.799043 0.704099
vt 0.582152 0.878046
vt 0.571071 0.820127
vt 0.628424 0.821277
vt 0.767999 0.942061
vt 0.605407 0.621708
vt 0.631507 0.687026
vt 0.694821 0.814212
vt 0.736951 0.878820
vt 0.689044 0.723085
vt 0.741361 0.793376
vt 0.756019 0.831976
vt 0.726169 0.745772
vt 0.707195 0.623949
vt 0.727639 0.642065
vt 0.738125 0.688402
vt 0.764174 0.722415
vt 0.792649 0.771289
vt 0.803066 0.806587
vt 0.821602 0.846901
vt 0.825103 0.914969
vt 0.815171 0.988039
vt 0.571490 0.723016
vt 0.472053 0.845091
vt 0.660833 0.516560
vt 0.980253 0.651123
vt 0.980482 0.742629
vt 0.643500 0.899063
vt 0.773416 0.529896
vn 0.418156 -0.784921 0.457215
vn 0.420843 -0.811563 0.405287
vn 0.153993 -0.824940 0.543839
vn -0.044027 -0.815817 0.576632
vn -0.049892 -0.655730 0.753345
vn 0.486142 -0.141485 0.862350
vn 0.554558 -0.026050 0.831737
vn 0.150742 0.242878 0.958273
vn 0.693556 0.456870 0.557001
vn 0.348614 0.428053 0.833810
vn 0.195388 0.500769 0.843240
vn -0.188871 -0.695696 -0.693062
vn -0.337828 -0.258061 -0.905139
vn -0.146283 -0.840752 -0.521284
vn -0.038848 -0.463039 -0.885486
vn -0.240041 -0.577917 -0.779996
vn -0.243616 -0.128951 -0.961261
vn 0.011467 0.508037 -0.861259
vn 0.490808 0.389023 -0.779595
vn -0.178486 0.575826 -0.797851
vn 0.009312 0.764293 -0.644802
vn -0.017418 0.926186 -0.376665
vn -0.028996 0.918110 -0.395264
vn -0.763184 -0.398856 0.508394
vn -0.712692 0.331234 0.618348
vn -0.562691 0.693847 0.449395
vn -0.552945 0.780919 0.290548
vn 0.401261 0.885006 0.236123
vn 0.784274 0.516348 0.343946
vn 0.990364 0.032593 0.134598
vn 0.842139 -0.224256 -0.490419
s 1
g Stone2_LP_rockLP01
f 1/36/1 3/37/2 4/3/3
f 1/35/1 4/39/3 2/5/4
f 2/5/4 4/39/3 5/4/5
f 3/37/2 6/6/6 4/3/3
f 4/3/3 6/6/6 7/7/7
f 4/3/3 7/7/7 8/8/8
f 4/3/3 8/8/8 5/4/5
f 6/6/6 9/9/9 7/7/7
f 7/7/7 9/9/9 10/10/10
f 10/10/10 11/11/11 7/7/7
f 7/7/7 11/11/11 8/8/8
f 21/13/12 12/14/13 25/12/14
f 25/12/14 12/14/13 31/38/15
f 21/13/12 22/33/16 12/14/13
f 12/14/13 22/33/16 23/17/17
f 12/14/13 13/18/18 31/38/15
f 31/38/15 13/18/18 30/19/19
f 23/17/17 26/20/20 12/14/13
f 12/14/13 26/20/20 13/18/18
f 30/19/19 13/18/18 29/22/21
f 26/20/20 27/23/22 13/18/18
f 13/18/18 27/23/22 28/21/23
f 1/34/1 22/33/16 21/13/12
f 1/35/1 2/5/4 22/16/16
f 1/34/1 21/13/12 25/12/14
f 2/5/4 5/4/5 14/24/24
f 5/4/5 15/25/25 14/24/24
f 15/25/25 8/8/8 16/26/26
f 11/11/11 17/27/27 8/8/8
f 8/8/8 17/27/27 16/26/26
f 22/16/16 14/24/24 23/17/17
f 14/24/24 15/25/25 23/17/17
f 26/20/20 15/25/25 16/26/26
f 17/27/27 27/23/22 16/26/26
f 16/26/26 27/23/22 26/20/20
f 10/10/10 18/28/28 11/11/11
f 11/11/11 18/28/28 17/27/27
f 10/10/10 9/9/9 18/28/28
f 18/28/28 9/9/9 19/29/29
f 18/28/28 28/21/23 17/27/27
f 17/27/27 28/21/23 27/23/22
f 18/28/28 19/29/29 28/21/23
f 28/21/23 19/29/29 29/22/21
f 6/6/6 20/30/30 9/9/9
f 9/9/9 20/30/30 19/29/29
f 6/6/6 3/2/2 20/30/30
f 20/30/30 3/2/2 24/31/31
f 3/2/2 1/1/1 24/31/31
f 19/29/29 20/30/30 29/22/21
f 29/22/21 20/30/30 30/19/19
f 20/30/30 24/31/31 30/19/19
f 30/19/19 24/31/31 31/15/15
f 1/1/1 25/32/14 24/31/31
f 24/31/31 25/32/14 31/15/15
f 2/5/4 14/24/24 22/16/16
f 23/17/17 15/25/25 26/20/20
f 5/4/5 8/8/8 15/25/25
f 29/22/21 13/18/18 28/21/23
