# This file uses centimeters as units for non-parametric coordinates.

g default
v -0.187222 0.637850 0.080065
v -0.537952 0.265748 0.273335
v -0.287897 0.527239 -0.321882
v -0.632647 0.190158 -0.136962
v 0.615846 0.343175 0.000420
v 0.525660 0.075748 0.183596
v 0.511979 0.384449 -0.306720
v 0.401786 0.033129 -0.172062
v 0.118399 0.585207 0.357979
v -0.092464 0.381130 0.585468
v -0.426924 0.061710 0.432159
v -0.654086 -0.039318 -0.060080
v -0.510634 0.045404 -0.398903
v -0.013937 0.431040 -0.539963
v 0.182731 0.663485 -0.337634
v 0.229622 0.754210 -0.126560
v -0.177165 0.157392 0.564793
v -0.123499 -0.073062 0.016469
v 0.481922 0.426531 0.230667
v 0.350199 0.232282 0.430390
v 0.116883 0.033568 0.506022
v -0.202338 -0.098812 0.470627
v 0.130509 0.056593 -0.427753
v 0.239424 0.351350 -0.569428
v 0.528340 0.538417 -0.075841
v 0.408652 0.055020 -0.180453
vt 0.179669 0.818151
vt 0.201570 0.860219
vt 0.155480 0.895301
vt 0.120873 0.846375
vt 0.240381 0.867937
vt 0.190526 0.914379
vt 0.247309 0.745611
vt 0.205193 0.717348
vt 0.255976 0.698820
vt 0.295414 0.767462
vt 0.163518 0.690573
vt 0.324394 0.841278
vt 0.284758 0.817032
vt 0.227681 0.981310
vt 0.127769 0.754139
vt 0.087794 0.836682
vt 0.092914 0.790867
vt 0.185092 0.766876
vt 0.133455 0.927019
vt 0.122532 0.662488
vt 0.289752 0.899803
vt 0.267558 0.875211
vt 0.238819 0.830290
vt 0.229263 0.806456
vt 0.267704 0.782237
vt 0.118684 0.712966
vt 0.048481 0.833212
vt 0.040497 0.914303
vt 0.175424 0.598342
vt 0.382046 0.915405
vt 0.355812 0.793306
vt 0.321924 0.839767
vn -0.582004 0.797515 0.158877
vn -0.842448 0.538616 0.013211
vn -0.776676 0.584972 0.233629
vn -0.540380 0.802137 -0.254097
vn -0.504725 0.018168 -0.863089
vn 0.903364 0.066792 0.423641
vn 0.778871 -0.170793 0.603481
vn 0.862088 -0.399466 0.311821
vn 0.971788 0.115450 0.205668
vn 0.480781 -0.761700 0.434352
vn 0.786524 -0.442109 -0.431185
vn 0.910208 -0.180897 -0.372555
vn 0.279532 -0.960077 0.010640
vn 0.710276 -0.684059 -0.166048
vn -0.397326 0.583811 0.708023
vn -0.449921 0.096877 0.887798
vn -0.417774 0.084511 0.904612
vn 0.169303 0.663618 0.728662
vn -0.878710 -0.476559 -0.027573
vn -0.208507 -0.798209 0.565143
vn 0.014838 -0.831810 -0.554862
vn -0.303944 0.571241 -0.762431
vn 0.215997 -0.625864 -0.749426
vn -0.113744 0.811043 -0.573823
vn 0.042962 0.971730 -0.232155
vn 0.720993 0.692808 0.013644
s 1
g rockLP01
f 1/1/1 4/3/2 2/4/3
f 4/3/2 3/2/4 13/6/5
f 19/7/6 20/8/7 6/9/8 5/10/9
f 20/8/7 21/11/10 6/9/8
f 5/10/9 26/32/11 7/13/12
f 6/31/8 18/30/13 8/12/14
f 1/1/1 2/4/3 10/15/15
f 2/4/3 11/16/16 10/15/15
f 10/15/15 11/16/16 17/17/17
f 9/18/18 20/8/7 19/7/6
f 9/18/18 10/15/15 20/8/7
f 10/15/15 21/11/10 20/8/7
f 2/4/3 12/19/19 11/16/16
f 12/19/19 4/3/2 13/6/5
f 12/19/19 13/6/5 18/14/13
f 17/26/17 22/20/20 21/11/10
f 22/20/20 18/29/13 21/11/10
f 18/14/13 13/6/5 23/21/21
f 13/6/5 14/5/22 24/22/23
f 24/22/23 7/13/12 23/21/21
f 18/30/13 23/21/21 8/12/14
f 23/21/21 7/13/12 26/32/11 8/12/14
f 3/2/4 15/23/24 14/5/22
f 3/2/4 1/1/1 16/24/25
f 1/1/1 9/18/18 16/24/25
f 14/5/22 15/23/24 24/22/23
f 7/13/12 16/24/25 25/25/26
f 25/25/26 9/18/18 19/7/6
f 7/13/12 25/25/26 5/10/9
f 25/25/26 19/7/6 5/10/9
f 11/16/16 12/19/19 22/27/20
f 22/27/20 12/19/19 18/28/13
f 6/9/8 21/11/10 18/29/13
f 24/22/23 15/23/24 7/13/12
f 17/17/17 11/16/16 22/27/20
f 1/1/1 10/15/15 9/18/18
f 3/2/4 16/24/25 15/23/24
f 13/6/5 3/2/4 14/5/22
f 1/1/1 3/2/4 4/3/2
f 16/24/25 9/18/18 25/25/26
f 2/4/3 4/3/2 12/19/19
f 10/15/15 17/26/17 21/11/10
f 5/10/9 6/31/8 8/12/14 26/32/11
f 15/23/24 16/24/25 7/13/12
f 13/6/5 24/22/23 23/21/21
