# This file uses centimeters as units for non-parametric coordinates.

g default
v 0.117036 -0.430462 0.859007
v 1.297071 0.123489 0.850480
v -1.395772 -0.260520 -0.099515
v 0.025065 -0.330266 -0.482921
v 1.227811 0.087790 -0.391536
v -1.478127 0.210078 -0.823838
v -0.709108 0.293171 -1.317870
v -0.026763 0.191851 -1.069189
v 0.597624 0.479385 -0.820847
v -1.490277 1.728721 2.196065
v -0.859124 1.852390 2.098335
v -0.022208 1.916183 1.879930
v -2.345211 1.477918 2.097743
v -2.682501 1.833427 1.074350
v -1.893467 2.234668 1.102255
v -1.085021 2.256743 1.054092
v -0.170705 2.164312 0.909589
v -2.446449 1.867455 0.196389
v -1.800786 2.198615 0.082836
v -1.140133 2.260498 0.057653
v -0.344561 2.218942 0.111052
v -1.199267 -0.360188 0.995020
v 1.548968 0.612229 -0.255881
v 0.613744 0.848010 -1.057340
v -0.155586 0.633409 -1.445375
v -1.979343 0.335134 1.649557
v -0.708072 0.365212 2.523684
v -0.031944 0.502991 2.616705
v 1.058505 0.993102 1.485610
v 1.159108 1.391201 0.198563
v 0.411982 1.524636 -0.896432
v -0.548503 1.350590 -1.253774
v -1.431986 1.304704 -1.431703
v -2.247127 1.008117 -0.773421
v -2.668149 0.558719 0.395207
v -2.335449 0.995334 2.000815
v -1.081375 1.067219 2.823476
v -0.474418 1.272810 2.739515
v 0.520497 1.644266 1.885673
v 0.450458 1.932159 0.724594
v -0.118859 2.049882 -0.371954
v -1.050860 2.198923 -0.882185
v -1.711878 1.885639 -0.578230
v -2.378052 1.553701 -0.209112
v -2.864234 1.290035 0.821021
vt 0.457609 0.692916
vt 0.614640 0.156864
vt 0.018520 0.476898
vt 0.220657 0.027880
vt 0.191199 0.114996
vt 0.017166 0.341026
vt 0.551412 0.153186
vt 0.466593 0.090054
vt 0.311223 0.038871
vt 0.260697 0.081558
vt 0.321100 0.499383
vt 0.405222 0.414118
vt 0.403824 0.521786
vt 0.483590 0.447650
vt 0.275364 0.461781
vt 0.342307 0.382538
vt 0.220414 0.401073
vt 0.278689 0.334514
vt 0.491816 0.370415
vt 0.433297 0.337200
vt 0.383105 0.311184
vt 0.323222 0.284700
vt 0.277961 0.649803
vt 0.441525 0.619537
vt 0.131068 0.494585
vt 0.098761 0.308742
vt 0.245723 0.572755
vt 0.421043 0.557151
vt 0.206808 0.510384
vt 0.166915 0.374354
vt 0.190086 0.150446
vt 0.288914 0.104658
vt 0.202584 0.219962
vt 0.305226 0.163197
vt 0.236894 0.293259
vt 0.324838 0.238406
vt 0.386111 0.067779
vt 0.394299 0.154003
vt 0.464219 0.195725
vt 0.529358 0.257617
vt 0.404311 0.244156
vt 0.452914 0.280500
vt 0.514333 0.326697
vt 0.622728 0.352098
vt 0.551148 0.461574
vt 0.447101 0.035930
vt 0.515984 0.026392
vt 0.565051 0.702908
vt 0.091721 0.074821
vt 0.641731 0.024828
vt 0.403156 0.808789
vt 0.584131 0.546839
vt 0.106441 0.191556
vt 0.143236 0.550185
vn -0.038509 -0.998328 -0.043099
vn -0.163841 -0.949694 -0.266905
vn 0.141792 -0.987765 -0.064923
vn 0.187868 -0.786805 -0.587914
vn 0.376846 -0.597678 -0.707650
vn 0.583927 -0.810629 -0.043695
vn -0.256917 -0.813354 -0.521966
vn 0.095973 -0.769161 -0.631808
vn 0.304944 -0.517189 -0.799703
vn 0.350306 -0.433018 -0.830531
vn -0.241255 0.884215 0.399949
vn -0.172843 0.951026 0.256272
vn -0.261937 0.853039 0.451345
vn -0.474045 0.844538 0.249074
vn -0.086574 0.937684 0.336531
vn 0.014086 0.982794 0.184169
vn 0.041816 0.950982 0.306406
vn 0.117248 0.987752 0.102954
vn -0.611836 0.759934 -0.219447
vn -0.158063 0.983335 -0.089822
vn -0.033342 0.999431 0.005185
vn 0.189727 0.981471 0.026791
vn -0.119762 -0.674506 0.728490
vn -0.157124 -0.743039 0.650542
vn 0.239142 -0.447683 0.861621
vn 0.652191 -0.125122 0.747657
vn -0.070821 -0.052422 0.996111
vn -0.168758 -0.233879 0.957508
vn 0.171179 0.397251 0.901604
vn 0.445236 0.431488 0.784591
vn 0.925470 0.087549 -0.368565
vn 0.548749 -0.232756 -0.802932
vn 0.842975 0.537346 -0.025529
vn 0.734053 0.475947 -0.484397
vn 0.474076 0.873866 -0.107749
vn 0.412178 0.904344 -0.110774
vn 0.310744 -0.372477 -0.874471
vn 0.189155 0.425819 -0.884816
vn -0.232356 -0.056402 -0.970994
vn -0.524919 -0.440430 -0.728342
vn -0.127151 0.792986 -0.595824
vn -0.329635 0.788026 -0.519957
vn -0.734997 0.592893 -0.329024
vn -0.659654 -0.751258 -0.021622
vn -0.988652 0.119915 -0.090486
s 1
g Stone4_LP_rockLP01
f 22/1/1 3/48/2 1/51/3
f 1/50/3 3/2/2 4/47/4
f 4/4/4 5/5/5 1/49/3
f 1/49/3 5/5/5 2/53/6
f 3/2/2 6/7/7 4/47/4
f 4/47/4 6/7/7 7/8/8
f 7/8/8 8/46/9 4/47/4
f 8/9/9 9/10/10 4/4/4
f 4/4/4 9/10/10 5/5/5
f 10/11/11 15/12/12 13/13/13
f 13/13/13 15/12/12 14/14/14
f 11/15/15 16/16/16 10/11/11
f 10/11/11 16/16/16 15/12/12
f 11/15/15 12/17/17 16/16/16
f 16/16/16 12/17/17 17/18/18
f 14/14/14 15/12/12 18/19/19
f 18/19/19 15/12/12 19/20/20
f 15/12/12 16/16/16 19/20/20
f 19/20/20 16/16/16 20/21/21
f 17/18/18 21/22/22 16/16/16
f 16/16/16 21/22/22 20/21/21
f 1/51/3 27/23/23 22/1/1
f 22/1/1 27/23/23 26/24/24
f 1/3/3 28/25/25 27/54/23
f 28/25/25 2/6/6 29/26/26
f 27/23/23 37/27/27 26/24/24
f 26/24/24 37/27/27 36/28/28
f 37/27/27 28/25/25 38/29/29
f 29/26/26 39/30/30 28/25/25
f 28/25/25 39/30/30 38/29/29
f 13/13/13 37/27/27 10/11/11
f 38/29/29 11/15/15 37/27/27
f 37/27/27 11/15/15 10/11/11
f 38/29/29 39/30/30 12/17/17
f 2/53/6 5/5/5 23/31/31
f 5/5/5 9/10/10 23/31/31
f 23/31/31 9/10/10 24/32/32
f 29/26/26 23/31/31 30/33/33
f 23/31/31 31/34/34 30/33/33
f 39/30/30 30/33/33 40/35/35
f 31/34/34 41/36/36 30/33/33
f 30/33/33 41/36/36 40/35/35
f 39/30/30 40/35/35 12/17/17
f 12/17/17 40/35/35 17/18/18
f 41/36/36 21/22/22 40/35/35
f 40/35/35 21/22/22 17/18/18
f 9/10/10 8/9/9 24/32/32
f 24/32/32 8/9/9 25/37/37
f 8/46/9 7/8/8 25/37/37
f 24/32/32 25/37/37 31/34/34
f 31/34/34 25/37/37 32/38/38
f 25/37/37 33/39/39 32/38/38
f 7/8/8 6/7/7 33/39/39
f 33/39/39 6/7/7 34/40/40
f 31/34/34 32/38/38 42/41/41
f 42/41/41 33/39/39 43/42/42
f 33/39/39 34/40/40 43/42/42
f 43/42/42 34/40/40 44/43/43
f 42/41/41 20/21/21 41/36/36
f 41/36/36 20/21/21 21/22/22
f 19/20/20 42/41/41 43/42/42
f 43/42/42 44/43/43 19/20/20
f 19/20/20 44/43/43 18/19/19
f 6/7/7 3/2/2 34/40/40
f 34/40/40 3/2/2 35/44/44
f 3/48/2 22/1/1 35/52/44
f 35/52/44 22/1/1 26/24/24
f 34/40/40 35/44/44 44/43/43
f 44/43/43 35/44/44 45/45/45
f 35/52/44 26/24/24 45/45/45
f 45/45/45 26/24/24 36/28/28
f 44/43/43 45/45/45 18/19/19
f 18/19/19 45/45/45 14/14/14
f 14/14/14 45/45/45 13/13/13
f 36/28/28 37/27/27 13/13/13
f 1/3/3 2/6/6 28/25/25
f 32/38/38 33/39/39 42/41/41
f 31/34/34 42/41/41 41/36/36
f 23/31/31 24/32/32 31/34/34
f 38/29/29 12/17/17 11/15/15
f 25/37/37 7/8/8 33/39/39
f 2/53/6 23/31/31 29/26/26
f 27/54/23 28/25/25 37/27/27
f 29/26/26 30/33/33 39/30/30
f 13/13/13 45/45/45 36/28/28
f 20/21/21 42/41/41 19/20/20
